<svg 
 xmlns="http://www.w3.org/2000/svg"
 xmlns:xlink="http://www.w3.org/1999/xlink"
 width="625px" height="625px">
<path fill-rule="evenodd"  fill="rgb(255, 255, 255)"
 d="M612.452,341.271 L340.670,613.052 C324.953,628.770 299.470,628.770 283.753,613.052 L233.142,562.442 C299.930,500.133 341.705,411.358 341.705,312.812 C341.705,214.266 299.930,125.492 233.142,63.182 L283.753,12.572 C299.470,-3.146 324.953,-3.146 340.670,12.572 L612.452,284.353 C628.169,300.071 628.169,325.553 612.452,341.271 ZM198.970,528.270 L152.654,481.954 C198.883,440.290 227.952,379.949 227.952,312.812 C227.952,245.675 198.883,185.334 152.654,143.670 L198.970,97.354 C257.029,150.901 293.407,227.603 293.407,312.812 C293.407,398.021 257.029,474.723 198.970,528.270 ZM117.841,447.141 L72.086,401.386 C97.858,380.488 114.335,348.577 114.335,312.812 C114.335,277.047 97.858,245.136 72.086,224.239 L117.841,178.483 C155.212,211.195 178.819,259.244 178.819,312.812 C178.819,366.380 155.212,414.429 117.841,447.141 ZM11.971,284.353 L37.199,259.125 C54.272,270.864 65.474,290.526 65.474,312.812 C65.474,335.098 54.272,354.760 37.199,366.499 L11.971,341.271 C-3.746,325.553 -3.746,300.071 11.971,284.353 Z"/>
</svg>